<?xml version="1.0" encoding="utf-8"?>
<!-- Generator: Adobe Illustrator 16.0.0, SVG Export Plug-In . SVG Version: 6.00 Build 0)  -->
<!DOCTYPE svg PUBLIC "-//W3C//DTD SVG 1.1//EN" "http://www.w3.org/Graphics/SVG/1.1/DTD/svg11.dtd">
<svg version="1.1" id="Layer_1" xmlns="http://www.w3.org/2000/svg" xmlns:xlink="http://www.w3.org/1999/xlink" x="0px" y="0px"
	 width="500px" height="150px" viewBox="200 0 500 150" enable-background="new 200 0 500 150" xml:space="preserve">
<g id="Background_xA0_Image_1_">
</g>
<g id="Lahima">
	<rect x="364.441" y="-1.373" fill="none" width="616.139" height="114.379"/>
	
		<text transform="matrix(1 0 0 1 364.4424 103.3408)" fill="#BFBFBF" font-family="'OpenSans-Light'" font-size="84.83" letter-spacing="1">LAHIMA</text>
	<g>
		<circle fill="#848484" cx="294.311" cy="72.687" r="68.95"/>
		<path fill="#666666" d="M361.945,86.15l-40.395-40.393l-48.599,32.036l-22.054,13.467l50.059,50.058
			C331.423,138.402,356.102,115.665,361.945,86.15z"/>
		<path fill="#324A5E" d="M321.291,82.437c0-2.151-0.261-4.243-0.736-6.249l7.651-4.417l-7.708-13.351l-7.656,4.421
			c-3.03-2.865-6.719-5.037-10.822-6.257v-8.832h-15.417v8.832c-4.103,1.22-7.792,3.392-10.822,6.257l-7.657-4.421l-7.708,13.351
			l7.651,4.417c-0.477,2.006-0.735,4.098-0.735,6.249s0.259,4.244,0.735,6.251l-7.651,4.416l7.708,13.352l7.658-4.42
			c3.029,2.866,6.718,5.038,10.821,6.258v8.831h15.418v-8.831c4.103-1.22,7.792-3.392,10.821-6.258l7.657,4.42l7.709-13.352
			l-7.652-4.416C321.03,86.681,321.291,84.588,321.291,82.437z M294.311,94c-6.385,0-11.562-5.176-11.562-11.563
			c0-6.386,5.176-11.561,11.562-11.561c6.387,0,11.563,5.175,11.563,11.561C305.873,88.824,300.698,94,294.311,94z"/>
		<path fill="#2B3B4E" d="M321.291,82.437c0-2.151-0.261-4.243-0.736-6.249l7.651-4.417l-7.708-13.351l-7.656,4.421
			c-3.03-2.865-6.719-5.037-10.822-6.257v-8.832h-7.832v23.129c0.041-0.001,0.081-0.004,0.122-0.004
			c6.385,0,11.563,5.175,11.563,11.561c0,6.387-5.176,11.562-11.563,11.562c-0.041,0-0.082-0.004-0.122-0.004v23.131h7.832v-8.833
			c4.102-1.22,7.792-3.391,10.822-6.256l7.656,4.42l7.708-13.35l-7.651-4.42C321.03,86.681,321.291,84.59,321.291,82.437z"/>
		<path fill="#FFD15D" d="M332.616,72.688c0-21.156-17.15-38.306-38.306-38.306s-38.306,17.15-38.306,38.306v15.32h76.612V72.688z"
			/>
		<g>
			<path fill="#F9B54C" d="M332.616,72.688c0-21.156-17.15-38.306-38.306-38.306c-0.051,0-0.103,0.003-0.155,0.003v53.624h38.461
				V72.688z"/>
			<rect x="286.65" y="34.381" fill="#F9B54C" width="15.322" height="38.306"/>
		</g>
		<rect x="294.158" y="34.381" fill="#F4A200" width="7.816" height="38.306"/>
		<rect x="294.311" y="72.688" fill="#BC732A" width="38.307" height="7.66"/>
		<rect x="256.005" y="72.688" fill="#EDA548" width="38.306" height="7.66"/>
		<rect x="250.897" y="78.721" fill="#F9B54C" width="86.827" height="12.539"/>
		<rect x="294.158" y="78.721" fill="#F4A200" width="43.568" height="12.539"/>
		<circle fill="#FF764C" cx="294.311" cy="65.025" r="15.322"/>
		<circle fill="#FFCE9B" cx="294.311" cy="65.026" r="12.304"/>
	</g>
</g>
<g id="helmet_xA0_Image_1_">
</g>
</svg>
